<mxfile host="app.diagrams.net" modified="2024-02-26T21:34:35.451Z" agent="Mozilla/5.0 (Windows NT 10.0; Win64; x64) AppleWebKit/537.36 (KHTML, like Gecko) Chrome/121.0.0.0 Safari/537.36" etag="_M0b-_dkl7-gFRMsebi2" version="23.1.7" type="github">
  <diagram name="Page-1" id="16e2658f-23c8-b752-8be9-c03fbebb8bbe">
    <mxGraphModel dx="1434" dy="764" grid="1" gridSize="10" guides="1" tooltips="1" connect="1" arrows="1" fold="1" page="1" pageScale="1" pageWidth="1100" pageHeight="850" background="none" math="0" shadow="0">
      <root>
        <mxCell id="0" />
        <mxCell id="1" parent="0" />
        <mxCell id="3QEcqqSR1HvzvCElfXW7-1" value="" style="pointerEvents=1;verticalLabelPosition=bottom;shadow=0;dashed=0;align=center;html=1;verticalAlign=top;shape=mxgraph.electrical.signal_sources.source;aspect=fixed;points=[[0.5,0,0],[1,0.5,0],[0.5,1,0],[0,0.5,0]];elSignalType=ac;" vertex="1" parent="1">
          <mxGeometry x="360" y="510" width="60" height="60" as="geometry" />
        </mxCell>
        <mxCell id="3QEcqqSR1HvzvCElfXW7-2" value="" style="verticalLabelPosition=bottom;shadow=0;dashed=0;align=center;html=1;verticalAlign=top;shape=mxgraph.electrical.transmission.3_line_bus;rotation=90;fillColor=#d5e8d4;strokeColor=#82b366;" vertex="1" parent="1">
          <mxGeometry x="202.5" y="307.5" width="375" height="30" as="geometry" />
        </mxCell>
        <mxCell id="3QEcqqSR1HvzvCElfXW7-3" value="" style="verticalLabelPosition=bottom;shadow=0;dashed=0;align=center;html=1;verticalAlign=top;shape=mxgraph.electrical.transmission.terminal_3_phase;pointerEvents=1;" vertex="1" parent="1">
          <mxGeometry x="368.5" y="130" width="43" height="10" as="geometry" />
        </mxCell>
        <mxCell id="3QEcqqSR1HvzvCElfXW7-5" value="" style="verticalLabelPosition=bottom;shadow=0;dashed=0;align=center;html=1;verticalAlign=top;shape=mxgraph.electrical.rot_mech.manual_control;pointerEvents=1;" vertex="1" parent="1">
          <mxGeometry x="80" y="340" width="50" height="50" as="geometry" />
        </mxCell>
        <mxCell id="3QEcqqSR1HvzvCElfXW7-6" value="M" style="verticalLabelPosition=middle;shadow=0;dashed=0;align=center;html=1;verticalAlign=middle;strokeWidth=1;shape=ellipse;fontSize=32;perimeter=ellipsePerimeter;" vertex="1" parent="1">
          <mxGeometry x="80" y="160" width="100" height="100" as="geometry" />
        </mxCell>
      </root>
    </mxGraphModel>
  </diagram>
</mxfile>
